<svg width="1151" height="990" xmlns="http://www.w3.org/2000/svg" xmlns:xlink="http://www.w3.org/1999/xlink" xml:space="preserve" overflow="hidden"><g transform="translate(-980 -132)"><g><path d="M1563.1 139.782 1624.66 161.394 1650.89 146.854 1657 155.87 1661.63 159.903 1678.46 163.605 1707.82 167.813 1724.71 173.346 1756.87 197.263 1769.48 201.347 1775.62 201.623 1780.65 200.531 1785.86 197.519 1790.73 192.517 1795.68 184.589 1799.03 181.935 1814.49 174.942 1824.02 160.914 1825.84 159.452 1828.25 159.973 1832.21 162.723 1841.94 173.439 1842.54 177.475 1841.16 186.773 1839.33 191.318 1840.59 195.442 1849.48 199.3 1856.54 208.389 1860.74 215.502 1865.48 218.785 1873.3 216.856 1881.92 216.442 1887.6 217.622 1891.84 220.102 1898.31 226.094 1899.61 230.168 1902.63 231.815 1908.37 230.711 1925.41 231.035 1929.91 231.885 1936.75 236.692 1951.01 238.62 1955.16 242.146 1958.2 247.512 1957.01 252.664 1960.65 258.042 1962.65 263.094 1960.31 269.45 1961.25 273.678 1959.07 276.795 1948.06 282.46 1950.52 286.996 1956.79 288.617 1959.63 292.481 1969.53 292.892 1977.14 295.925 1979.21 301.563 1983.97 306.685 1987.87 301.099 1991.2 298.32 1996.46 297.395 2004.81 298.916 2014.12 295.374 2019.76 294.376 2044.88 455.12 2071.22 590.075 2089.96 690.362 2106.12 783.482 2121.35 842.709 2125.08 863.266 2121.73 876.152 2123.88 887.125 2122.06 907.122 2119.36 917.399 2109.31 930.286 2118.51 947.396 2109.12 948.728 2098.4 956.308 2091.62 964.972 2087.14 972.681 2077.39 983.756 2064.98 991.488 2034.12 1000.02 2016.01 1009.97 1996.88 1014.41 1982.33 1008.94 1971 1008.21 1951.49 1011.78 1951.27 1013.06 1920.6 1025.76 1909.53 1027.24 1899.66 1036.58 1896.17 1042.09 1885.9 1049.54 1880.27 1055.5 1870.18 1070.41 1859.91 1075.63 1853.18 1089.04 1852.44 1095.9 1844.54 1115.27 1834.31 1117.36 1826.52 1113.63 1817.35 1111.41 1812.14 1106.85 1808.69 1096.68 1796.08 1095.77 1784.29 1097.34 1770.14 1100.7 1749.37 1101.05 1741.24 1092.17 1739.56 1077.64 1743.91 1069.23 1752.98 1064.23 1758.52 1042.15 1763.76 1033.31 1776.56 1030.51 1788.68 1027.07 1796.24 1011.75 1806.31 997.877 1822.93 987.752 1824.18 973.045 1819.54 958.697 1804.93 948.704 1790.04 949.764 1762.13 954.653 1757.08 945.349 1751.26 929.987 1738.93 926.961 1732.69 919.898 1715.58 897.33 1712.93 884.226 1707.59 863.294 1707.13 852.21 1696.76 847.78 1700.49 833.28 1704.99 822.101 1708.47 805.167 1701.01 790.42 1689.29 782.056 1679.17 773.34 1670.47 772.014 1659.18 778.205 1649.89 786.752 1633.83 795.999 1603.88 782.702 1586.16 765.215 1592.9 746.97 1595.1 727.628 1599.2 723.717 1585.72 709.783 1583.56 680.663 1581.36 667.216 1593.66 664.512 1612 662.232 1615.63 659.695 1612.33 655.919 1611.45 650.653 1608.82 646.536 1602.94 643.598 1595.57 644.97 1584.01 634.092 1570.28 638.097 1567.66 628.455 1566.13 619.12 1553.12 619.732 1539.06 614.385 1520.2 606.363 1497.54 589.954 1472.74 582.004 1440.59 587.834 1428.55 575.806 1413.54 566.189 1398.26 559.876 1377.35 542.317 1366.62 525.031 1363.03 512.151 1355.31 499.422 1351.02 491.128 1341 489.628 1329.62 486.163 1308.64 486.552 1297.37 482.553 1286.28 481.77 1276.53 485.911 1264.01 487.673 1255.53 487.289 1236.53 469.579 1219.67 462.842 1203.92 462.099 1188.22 464.044 1167.81 470.316 1143.94 479.051 1128.68 480.654 1119.24 474.804 1106.76 452.888 1103.61 439.624 1089.01 434.165 1061.15 429.07 1045.74 419.788 1036.61 408.615 1030.12 398.302 1024.6 387.848 1015.15 379.69 986.319 347.685 989.58 338.755 999.739 334.28 1013.88 324.202 1022.79 312.775 1025.01 306.014 1027.94 281.953 1031.94 275.362 1050.91 271.421 1057.87 263.665 1065.73 262.198 1081.22 275.191 1095.76 281.729 1105.31 280.109 1105.63 266.821 1103.7 247.803 1104.82 229.739 1115.88 232.451 1150.38 243.078 1334.18 271.909 1397.82 285.159 1481.55 211.897 1560.59 139.879Z" stroke="#000000" stroke-width="4.20656" stroke-linecap="butt" stroke-linejoin="miter" stroke-miterlimit="8" stroke-opacity="1" fill="#FFFFFF" fill-rule="evenodd" fill-opacity="1"/></g></g></svg>