<svg width="595" height="463" xmlns="http://www.w3.org/2000/svg" xmlns:xlink="http://www.w3.org/1999/xlink" xml:space="preserve" overflow="hidden"><g transform="translate(-2585 -742)"><g><path d="M2644.75 749.195 2758 784.339 2784.77 793.367 2842.94 805.612 2930.97 828.433 3062.6 803.89 3167.08 783.102 3163.67 791.289 3154.06 798.358 3151.92 807.799 3153.86 816.544 3143.17 820.909 3146.95 838.16 3153.35 853.881 3161.81 866.426 3165.49 884.468 3165.06 890.285 3174.21 904.88 3162.39 924.613 3139.83 973.032 3131.66 986.757 3124.88 999.874 3119.7 1014.69 3122.75 1034.35 3120.97 1052.12 3107.12 1071.51 3094.58 1085.48 3058.99 1133.49 3065.91 1141.15 3074.2 1154.19 3077.69 1164.57 3078.49 1176.06 3083.01 1184.22 3089.8 1198.8 3070.67 1194.08 3040.7 1177.11 3028.76 1174.77 3013.22 1173.99 2991.34 1165.65 2982.42 1163.43 2970.98 1154.28 2960.46 1152.62 2952.17 1155.45 2947.28 1161.48 2944.4 1171.07 2933.33 1181.71 2922.58 1178.85 2907.01 1185.99 2897.21 1185.44 2891.99 1177.41 2880.25 1179.27 2873.76 1176.71 2868.01 1165.32 2868.44 1154.58 2861.25 1156.9 2848.99 1154.46 2838.94 1153.69 2829.19 1151.15 2816.75 1150.89 2805.13 1145.29 2798.66 1135.06 2795.86 1120.01 2791.22 1114.61 2777.39 1114.91 2773.86 1117.95 2765.03 1118.4 2758.17 1116.42 2743.96 1106.91 2737.57 1111.82 2733.08 1110.54 2729.52 1105.61 2720.03 1101.78 2711.54 1102.64 2707.71 1098.8 2707.19 1090.72 2704.28 1078.7 2682.67 1073.77 2670.46 1061.09 2659.35 1043.19 2653.96 1046.84 2635.36 1063.6 2625.45 1066.05 2612.39 1071.9 2599.37 1073.54 2590.11 1070.87 2592.26 1062.67 2588.93 1052.01 2593.44 1050.03 2606.84 1039.88 2619.98 1025.28 2627.35 1019.2 2628.21 1011.85 2636.2 992.936 2639.44 987.263 2641.69 979.554 2643.69 971.679 2642.54 965.223 2637.76 961.56 2629.86 962.821 2617.17 967.097 2616.05 955.199 2626.14 944.787 2633.81 931.157 2632.29 918.565 2637.14 914.552 2670.39 903.503 2682.53 903.527 2696.18 898.038 2703 889.58 2708.3 880.987 2715.91 881.793 2722.18 883.159 2735.46 875.985 2737.71 868.021 2729.95 857.567 2725.04 844.257 2721.95 831.281 2713.85 820.38 2699.28 811.45 2681.75 808.353 2671.56 802.646 2654.92 765.092Z" stroke="#000000" stroke-width="4.20656" stroke-linecap="butt" stroke-linejoin="miter" stroke-miterlimit="8" stroke-opacity="1" fill="#FFFFFF" fill-rule="evenodd" fill-opacity="1"/></g></g></svg>