<svg width="1022" height="1137" xmlns="http://www.w3.org/2000/svg" xmlns:xlink="http://www.w3.org/1999/xlink" xml:space="preserve" overflow="hidden"><g transform="translate(-252 -279)"><g><path d="M293.117 619.929 296.662 624.77 292.744 626.25 289.65 623.976 286.073 625.219 284.505 623.979 288.889 622.025 290.266 620.262 293.117 619.929ZM556.842 314.484 646.21 329.086 691.166 320.284 743.105 335.566 775.946 343.6 774.868 361.656 776.804 380.675 776.483 393.963 766.933 395.582 752.394 389.086 736.901 376.051 729.037 377.518 722.08 385.275 703.114 389.215 699.114 395.848 696.229 419.901 694.004 426.62 685.094 438.047 670.951 448.125 660.791 452.601 657.531 461.531 686.357 493.536 695.805 501.652 701.335 512.147 707.809 522.419 716.943 533.592 732.367 542.916 760.219 547.969 774.823 553.469 777.97 566.734 790.452 588.65 799.942 594.532 815.198 592.93 839.073 584.194 859.527 577.956 875.182 575.978 890.98 576.754 907.836 583.491 926.843 601.201 935.361 601.578 947.843 599.823 957.596 595.682 968.678 596.465 979.951 600.465 1000.93 600.076 1012.35 603.532 1022.34 605.082 1026.62 613.334 1034.38 626.055 1037.97 638.935 1048.71 656.221 1069.65 673.773 1084.94 680.127 1099.9 689.752 1111.95 701.78 1144.1 695.949 1168.9 703.899 1191.56 720.309 1210.42 728.33 1224.48 733.678 1237.49 733.065 1239.02 742.401 1241.64 752.001 1231.72 758.655 1219.94 760.275 1192.91 742.093 1183.44 732.74 1165.1 723.592 1151.21 718.939 1138.91 719.417 1137.29 712.067 1137.58 707.773 1134.02 705.076 1130.64 707.821 1117.08 704.604 1116.65 712.903 1109.18 717.292 1103.5 714.059 1090.84 715.12 1090.1 719.756 1085.71 721.241 1074.88 722.636 1099.31 736.907 1116.04 745.424 1123.52 745.529 1121.49 738.514 1131.35 738.332 1142.97 747.231 1157.75 751.413 1171.38 751.407 1181.97 752.285 1194.88 758.152 1199.56 773.777 1218.25 773.14 1237.74 777.275 1252.73 781.203 1254.93 794.65 1257.09 823.77 1270.57 837.704 1266.46 841.573 1264.27 860.957 1257.52 879.161 1242.28 870.828 1223.29 869.039 1210.45 878.31 1200.96 898.324 1200.2 917.388 1201.02 927.89 1194.28 967.151 1204.1 994.843 1188.78 1001.94 1174.6 1020.97 1180.62 1036.03 1174.06 1055.87 1163.65 1058.17 1144.52 1051.18 1099.75 1042.66 1079.51 1036.18 1064.37 1039.52 1072.62 1067.94 1064.53 1068.04 1062.5 1066.16 1062.48 1064.07 1054.74 1057.89 1044.73 1052.88 1045.06 1049.43 1049.22 1049.45 1052.45 1051.52 1058.5 1051.56 1060.45 1049.9 1061.02 1047.74 1058.13 1043.37 1053.54 1046.26 1038.17 1043.95 1033.35 1041.41 1027.88 1041.47 1016.89 1048.76 1013.23 1055.84 1007.63 1058.37 1005.01 1056.57 1001.26 1056.69 998.008 1055.39 992.47 1057.13 983.22 1054.29 972.871 1054.65 970.71 1056.35 963.399 1055.78 958.217 1054.25 951.919 1054.05 944.932 1051.15 937.194 1046.13 934.045 1038.22 927.471 1029.21 930.097 1027.03 930.675 1020.89 928.753 1015.56 922.123 1008.27 914.994 1003.52 913.822 1000.32 908.545 999.409 903.251 996.402 890.173 992.15 882.016 990.977 878.108 988.26 881.036 978.281 880 974.67 865.3 964.651 860.664 964.172 856.629 961.693 853.188 956.276 845.965 951.927 823.525 955.636 820.384 957.138 816.885 961.919 810.642 958.88 804.661 960.328 810.349 962.489 814.504 966.485 817.375 966.704 820.232 963.716 826.562 964.084 835.59 957.514 839.247 956.684 846.929 958.291 854.367 963.754 860.489 970.412 871.709 974.807 874.431 978.265 874.952 981.204 873.575 989.216 875.64 995.283 878.528 997.596 887.659 997.812 894.905 1000.27 914.345 1011.31 918.356 1020.81 917.468 1026.46 919.114 1037.49 922.737 1044.97 921.336 1049.73 924.563 1059.17 923.993 1061.33 921.667 1063.06 921.785 1066.81 931.325 1087.02 943.429 1100.49 931.728 1093.36 926.657 1093.52 925.502 1092.42 920.233 1093.56 916.87 1090.78 902.327 1097.21 898.505 1103.21 901.798 1104.5 904.234 1099.33 908.656 1098.69 912.256 1101.81 909.154 1104.63 907.206 1108.56 908.465 1110.2 910.625 1109.62 916.306 1102.36 916.258 1100.1 914.319 1097.82 916.583 1096.66 920.073 1098.08 930.011 1096.48 934.718 1098.44 937.068 1101.97 936.641 1103.76 932.217 1105.51 937.708 1107.54 939.11 1109.92 936.055 1115.01 939.464 1121.37 941.41 1118.56 952.068 1126.06 958.476 1129.06 977.37 1133.01 982.094 1135.96 985.813 1142.82 990.757 1144.01 998.881 1152.38 1008.3 1155.2 1012.85 1154.37 1015.07 1150.94 1017.17 1153.19 1017.82 1160.82 1016.82 1163.66 1014.02 1163.81 1008.87 1160.4 1000.68 1161.32 996.213 1159.7 990.651 1156.19 986.261 1150.74 983.071 1155.12 980.397 1155.03 978.68 1157.03 982.342 1159.58 987.209 1158.13 992.786 1164.85 996.41 1164.97 999.781 1168.9 1005.01 1166.44 1009.3 1171.36 1011.16 1171.21 1012.7 1173.23 1010.06 1178.91 1007.51 1201.11 1000.03 1212.17 990.971 1216.14 975.716 1217.74 972.228 1223.25 955.625 1230.11 944.786 1235.96 929.265 1240.87 919.042 1255.29 921.416 1267.2 931.129 1272.01 948.861 1272.59 964.292 1271.68 984.004 1274.53 1008.5 1303.64 1026.16 1302.74 1022.85 1315.87 1018.38 1328.29 1016.94 1342 1023.88 1362.33 1018.55 1384.37 1008.87 1396.67 1001.23 1412.48 996.753 1409.27 983.233 1402.49 967.458 1397.82 966.698 1394.75 968.478 1392.19 968.731 1388.37 961.746 1377 937.133 1364.47 929.071 1361.78 919.972 1360.62 910.779 1360.97 909.886 1356.99 902.53 1352.84 882.442 1345.35 874.531 1345.46 860.614 1341.75 852.694 1340.92 849.79 1341.65 848.429 1346.62 841.331 1347.17 831.513 1345.16 826.931 1341.84 822.523 1340.55 814.033 1340.77 803.915 1344.34 802.767 1351.53 800.883 1353.78 797.535 1354.21 781.379 1348.66 778.99 1343.81 776.151 1342.65 769.22 1349.2 765.264 1349.36 764.195 1351.83 762.099 1351.64 760.138 1344.99 750.913 1340.04 747.534 1340.31 741.07 1345.27 732.66 1346.8 721.528 1344.87 713.371 1348.84 708.016 1346.4 699.266 1347.05 690.784 1342.17 683.9 1344.95 678.757 1344.74 666.327 1347.21 663.076 1345.91 661.153 1340.58 656.469 1337.85 650.313 1337.27 645.249 1338.59 642.623 1340.76 643.28 1343.29 642.378 1345.52 629.823 1341.98 630.811 1338.19 633.003 1336.66 633.454 1332.98 629.537 1321.96 625.012 1315.81 617.906 1309.17 618.088 1306.09 611.141 1297.15 591.614 1280.53 588.316 1275.85 581.463 1271.65 575.196 1269.6 556.902 1256.71 551.364 1251.31 546.434 1241.05 543.579 1237.79 532.146 1231.16 530.033 1227.97 527.906 1227.61 523.182 1222.44 508.537 1209.8 506.67 1201.64 500.965 1197.38 490.695 1174.49 484.405 1169.19 482.823 1163.63 470.045 1145.54 454.308 1131.01 454.007 1126.31 450.518 1118.64 449.363 1111.28 436.308 1092.86 434.101 1084.93 435.003 1076.46 427.509 1061.55 435.605 1050.79 438.2 1044.43 433.175 1035.67 427.454 1029.32 419.613 1023.77 416.243 1019.83 412.144 1019.25 409.865 1017.21 408.013 1018.5 404.753 1016.26 402.687 1016.44 401.865 1013.95 403.479 1006.28 408.084 1001.45 410.781 1000.77 413.834 1003.05 415.338 998.82 418.717 998.557 420.055 995.475 420.356 988.782 422.818 986.64 427.028 971.279 429.324 970.282 430.898 967.539 432.274 960.641 434.609 960.963 436.927 964.327 446.358 964.1 449.15 961.895 451.501 958.062 452.925 941.138 448.779 930.933 454.018 930.527 456.74 933.985 461.053 930.546 463.958 923.568 463.554 917.224 460.326 915.148 456.718 904.84 449.935 902.118 450.467 899.748 448.362 898.611 444.571 898.74 442.197 897.098 440.805 890.517 435.781 886.901 438.329 883.202 435.093 879.072 428.682 876.279 428.738 874.556 440.614 870.093 442.182 865.083 445.038 862.095 444.145 859.228 445.917 855.506 445.474 854.093 449.573 849.539 455.191 850.216 458.902 848.775 461.806 853.183 467.543 856.491 472.845 855.301 485.371 839.927 493.9 834.779 499.947 826.299 500.801 827.847 504.496 829.449 507.772 828.649 511.254 821.774 510.193 820.266 510.588 818.306 506.403 813.032 506.695 811.649 515.003 809.368 520.567 805.518 522.379 802.902 519.705 796.566 520.774 794.093 527.095 793.521 528.464 790.604 537.77 790.615 539.654 788.37 540.652 784.412 540.414 778.037 546.096 777.93 546.191 770.165 548.646 766.868 552.895 764.212 552.824 757.591 551.276 754.892 548.016 752.65 531.423 750.186 528.02 752.337 523.423 758.314 515.66 761.43 517.337 770.611 514.639 772.413 513.833 778.261 507.424 781.503 506.293 784.545 501.378 783.734 500.731 782.146 506.926 776.676 507.733 769.715 504.204 768.082 505.866 762.669 507.725 762.526 508.897 759.476 512.948 758.912 515.013 753.593 514.19 752.21 510.432 751.391 507.155 752.191 509.704 747.379 513.652 746.278 515.148 740.897 512.632 738.512 512.894 736.75 519.059 737.15 526.932 729.475 527.661 726.125 516.244 699.039 510.115 689 510.935 682.551 508.315 674.493 509.796 660.768 509.227 655.57 502.454 648.652 491.921 642.028 487.26 637.401 481.738 628.958 470.722 632.101 466.474 628.508 460.831 629.933 457.571 627.691 454.391 627.874 447.64 630.454 439.837 627.329 433.42 628.519 428.67 629.902 423.85 633.609 420.376 641.639 409.393 637.584 397.382 636.208 393.733 637.08 391.367 632.569 388.511 629.308 385.353 627.817 383.232 624.586 382.932 618.779 395.109 619.009 395.054 615.596 388.336 606.955 378.587 611.78 372.47 612.527 361.763 610.131 340.539 613.692 332.065 600.594 328.908 598.889 318.643 597.906 295.672 592.814 290.822 590.107 283.376 588.84 279.19 589.815 276.674 592.567 264.092 598.492 259.589 597.816 266.284 591.822 276.341 587.708 282.64 582.775 284.855 579.353 296.266 575.365 300.579 571.926 307.4 569.717 309.489 567.647 310.549 564.233 319.563 560.49 322.215 551.078 318.172 547.66 304.441 543.361 313.059 541.578 315.047 539.87 337.821 539.692 340.337 536.941 346.123 536.258 351.242 538.357 354.043 537.091 360.159 541.482 360.981 543.978 357.896 547.781 361.259 555.695 364.044 557.472 369.282 557.066 375.256 560.713 382.323 559.784 384.91 557.404 385.163 554.701 383.723 552.11 376.276 546.82 376.466 544.686 380.526 543.949 382.625 537.682 386.383 538.501 387.412 535.821 394.677 533.913 397.63 534.33 400.258 538.192 403.684 534.152 411.027 533.77 413.181 530.917 418.284 529.808 422.756 530.32 425.944 532.19 427.559 530.553 430.947 530.331 433.741 533.048 433.455 536.698 437.665 538.971 441.787 538.779 443.267 536.441 441.836 528.54 446.695 525.937 447.93 522.319 446.292 519.594 433.285 515.714 434.367 511.525 441.403 511.544 441.957 507.286 444.822 505.238 451.375 503.637 453.725 499.804 453.425 493.998 451.107 490.633 447.31 488.495 436.996 485.467 421.9 473.383 418.639 472.255 412.656 472.804 407.878 470.468 400.764 468.923 392.431 461.92 396.942 452.365 403.193 451.207 403.796 449.208 401.248 446.658 401.272 444.77 403.859 442.39 408.971 442.222 410.515 440.213 419.068 445.462 420.921 449.302 422.613 450.304 440.482 450.254 446.924 446.963 450.454 442.347 454.735 439.856 456.509 435.92 456.794 432.27 452.482 419.186 446.809 415.096 442.512 414.38 436.838 410.505 430.319 412.056 438.893 385.926 448.235 362.901 450.032 355.066 469.11 306.159 471.306 299.06 471.942 288.751 474.544 285.554 478.192 284.683 513.436 283.352 519.741 283.811 526.821 288.53 545.787 305.135 552.101 312.569 556.842 314.484Z" stroke="#000000" stroke-width="4.20656" stroke-linecap="butt" stroke-linejoin="miter" stroke-miterlimit="8" stroke-opacity="1" fill="#FFFFFF" fill-rule="evenodd" fill-opacity="1"/></g></g></svg>