<svg width="380" height="711" xmlns="http://www.w3.org/2000/svg" xmlns:xlink="http://www.w3.org/1999/xlink" xml:space="preserve" overflow="hidden"><g transform="translate(-2195 -114)"><g><path d="M2309.62 146.346 2317.93 155.238 2321.16 160.011 2331.38 163.186 2334.75 165.578 2338.37 167.023 2343.75 167.574 2348.74 169.441 2350.83 171.822 2353.1 178.32 2357.88 181.768 2365.2 182.589 2374.68 182.396 2378.68 183.596 2380.85 186.39 2382.02 189.334 2386.52 193.391 2392.57 192.957 2398.98 189.715 2407.74 184.182 2411.99 178.401 2426.25 176.519 2432.08 177.197 2439.51 175.043 2443.34 169.085 2448.92 163.99 2452.53 158.46 2454.13 152.247 2459.76 148.298 2462.74 147.339 2476.01 145.862 2483.32 136.798 2488.48 126.39 2490.37 123.972 2496.64 123.581 2512.32 120.144 2516.47 117.462 2529.72 120.784 2530.13 129.394 2529.12 137.335 2544.54 146.617 2555.13 151.988 2562.07 156.434 2568.95 166.371 2547.35 170.646 2521.2 174.683 2513.43 185.591 2504.18 189.636 2495.46 191.781 2488.87 203.448 2484.41 214.875 2472.88 216.406 2469.42 230.125 2472.37 254.856 2476.25 261.216 2484.77 268.527 2479.13 293.664 2481.87 309.489 2496.73 331.077 2505.65 350.254 2502.8 367.794 2507.27 376.781 2499.52 384.433 2487.09 386.69 2476.56 410.885 2476.7 422.799 2488.18 442.383 2502.67 455.352 2510.66 476.204 2516.47 499.275 2512.8 513.033 2506.95 529.224 2504.71 550.841 2500.28 563.25 2494.18 577.262 2487.43 589.43 2474.26 602.788 2441.14 635.943 2435.96 646.268 2438.47 656.658 2442.45 683.846 2437.38 693.636 2428.36 697.592 2414.51 701.151 2412.42 708.572 2413.22 715.611 2412.2 721.028 2418.2 728.18 2430.82 740.524 2431.05 752.893 2429.1 765.51 2421.21 779.138 2410 789.08 2398.94 796.254 2387 798.375 2382.81 801.79 2373.38 805.101 2359.35 812.417 2355.27 810.845 2343.05 811.522 2329.61 819.238 2319.43 820.21 2315.46 820.115 2309.73 818.86 2300.19 818.254 2290.98 801.144 2301.03 788.258 2303.73 777.98 2305.55 757.984 2303.4 747.011 2306.76 734.124 2303.02 713.567 2287.79 654.34 2271.63 561.22 2252.89 460.933 2226.55 325.978 2201.43 165.235 2206.37 164.372 2218.93 160.121 2226.77 173.469 2234.17 173.631 2241.43 166.973 2244.74 166.165 2250.18 166.362 2264.14 170.917 2272.14 169.938 2276.71 167.647 2277.53 159.828 2280.53 155.357 2283.69 153.765 2287.39 153.825 2295.33 155.64 2295.01 149.965 2295.89 145.173 2298.28 143.303 2303.87 142.528Z" stroke="#000000" stroke-width="4.20656" stroke-linecap="butt" stroke-linejoin="miter" stroke-miterlimit="8" stroke-opacity="1" fill="#FFFFFF" fill-rule="evenodd" fill-opacity="1"/></g></g></svg>