<svg width="1196" height="1383" xmlns="http://www.w3.org/2000/svg" xmlns:xlink="http://www.w3.org/1999/xlink" xml:space="preserve" overflow="hidden"><g transform="translate(-2947 13)"><g><path d="M3107.61 50.2361 3117.91 73.0429 3132.28 97.4215 3117.56 102.73 3110.06 89.3176 3103.22 74.9214 3093.21 61.1776 3090.31 75.7737 3097.77 89.1936 3107.16 103.914 3113.99 118.269 3116.26 134.355 3111.6 148.476 3099.27 156.622 3114.61 151.195 3122.57 137.295 3130.82 150.564 3132.04 135.477 3136.91 111.043 3140.23 121.406 3151.93 142.83 3151.09 145.174 3153.57 149.793 3154.56 149.173 3168.34 170.242 3177.24 186.468 3201.25 220.853 3204.3 227.331 3214.54 240.26 3216.57 247.489 3216.87 256.89 3233.39 281.969 3237.31 286.953 3237.47 283.541 3219.81 254.101 3220.75 250.925 3242.51 283.216 3245.98 286.787 3250.53 296.401 3257.26 306.921 3268.59 318.572 3288.02 342.964 3307.74 363.705 3320.1 380.079 3328.51 386.169 3354.65 411.072 3365.12 423.442 3388.56 439.189 3389.01 442.87 3385.79 442.887 3381.14 440.099 3378.66 439.891 3379.25 442.303 3392.99 448.44 3393.35 445.161 3397.35 447.474 3428.88 474.124 3453.17 498.394 3455.39 502.335 3458.27 504.863 3458.53 507.297 3464.36 511.57 3469.96 517.729 3471.23 520.566 3469.95 528.175 3470.57 530.067 3474.38 527.111 3476.09 527.338 3476.48 525.766 3472.4 518.588 3461.79 504.444 3463.11 502.137 3466.91 504.49 3479.59 517.421 3515 545.978 3516.81 548.713 3515.32 548.784 3514.15 550.68 3516.65 553.238 3521.22 562.077 3524.51 563.586 3527.22 562.723 3521.64 556.903 3522.01 553.665 3545.22 572.066 3547.31 572.906 3553.1 579.841 3558.34 583.029 3564.39 589.53 3579.73 599.298 3627.48 643.678 3632.5 647.507 3645.96 650.831 3649.68 648.533 3651.94 643.991 3654.4 641.849 3659.3 640.821 3664.2 636.199 3666.94 635.716 3672.44 639.113 3677.5 635.572 3689.97 638.872 3694.87 641.826 3694.64 646.021 3696.65 648.889 3695.42 657.001 3696.58 661.7 3718.61 687.348 3736.16 699.004 3741.07 703.624 3740.84 705.552 3737.91 708.127 3738.85 709.272 3746.21 710.299 3756.09 719.318 3800.32 756.54 3819.62 776.42 3845.75 796.401 3863.71 814.054 3871.77 815.845 3879.24 820.789 3886.83 821.002 3894.84 819.421 3902.53 810.367 3905.79 810.556 3907.86 812.641 3903.34 821.726 3904.01 829.902 3907.95 832.998 3924.54 854.639 3928.9 862.364 3935.71 864.78 3939.01 870.609 3944.87 874.107 3960.15 875.069 3965.89 871.27 3968.94 871.284 3986.52 877.111 3992.04 876.179 4003.43 878.745 4011.12 878.381 4015 876.951 4019.05 873.048 4027.29 875.961 4037.27 875.928 4041.95 874.388 4046.06 869.917 4050.83 869.087 4058.43 871.567 4062.92 869.077 4067.73 868.667 4074.11 872.837 4074.51 881.62 4079.01 884.779 4081.09 889.131 4084.48 891.39 4088.32 896.176 4094.39 899.675 4117.94 905.983 4124.92 909.308 4127.84 909.775 4129.72 910.827 4132.22 916.51 4138.61 926.797 4138.93 930.675 4132.66 931.75 4130.3 930.364 4121.89 920.762 4117.12 917.998 4106.98 919.003 4101.55 920.645 4099.04 924.979 4098.8 927.55 4100.31 932.269 4106.6 944.031 4105.96 953.013 4101.28 969.493 4098.92 972.385 4090.26 971.695 4086.77 972.321 4084.26 974.173 4081.72 978.17 4076.53 979.039 4071.69 975.944 4065.66 967.729 4063.58 968.084 4058.7 972.83 4055.26 977.686 4051.35 971.588 4047.43 973.283 4046.18 974.807 4035.42 976.83 4032.74 975.59 4030.76 967.281 4022.82 961.871 4027.92 957.424 4028.82 954.982 4026.22 951.887 4021.6 950.419 4015.83 945.363 4015.11 953.207 4013.62 954.391 3997.59 945.698 3998.53 937.856 3997.87 936.227 3988.19 936.073 3984.26 929.638 3981.56 928.315 3974.53 927.01 3966.64 928.741 3959.27 923.22 3946.19 917.599 3943.61 917.366 3930.42 925.678 3922.48 920.953 3911.06 916.853 3907.17 912.891 3893.13 916.358 3889.83 919.73 3886.94 920.071 3885.8 923.286 3885.42 932.048 3877.26 940.422 3877.2 956.441 3874.56 961.014 3877.48 962.594 3878.79 971.203 3880.93 971.606 3886.04 969.426 3889.26 971.675 3888.96 975.499 3891.11 979.068 3889.13 983.943 3891.98 987.418 3890.74 992.323 3892.3 994.676 3896.38 997.575 3904.69 995.551 3906.33 997.377 3902.99 1002.08 3903.9 1003.06 3906.13 1002.85 3908.5 999.998 3911.86 1000.94 3913.97 1003.91 3917.41 1003.08 3919.3 1006.66 3918.04 1008.82 3904.6 1015.64 3858.19 1034.95 3849.91 1039.63 3848.66 1041.79 3852.42 1067.4 3866.73 1139.51 3870.5 1150.17 3905.99 1334.61 3910.33 1352.31 3912.96 1356.38 3915.29 1357.35 3918.78 1366.4 3896.98 1364.25 3884.77 1358.29 3873.48 1344.15 3856.66 1300.29 3844.15 1296.36 3819.46 1296.82 3801.8 1295.5 3799.7 1291.49 3799.74 1278.09 3786.16 1260.28 3785.83 1250.93 3779.92 1235.37 3768.66 1233.63 3745.82 1226.76 3727.19 1222.2 3715.43 1220.57 3693.77 1199.77 3679.88 1191.7 3664.67 1196.03 3651.9 1202.07 3638.14 1201.63 3624.93 1188.89 3617.61 1186.06 3597.29 1186.06 3583.86 1179.1 3573.23 1171.29 3555.7 1165.97 3545.43 1173.42 3543.25 1178.12 3544.44 1191.5 3541.71 1198.27 3532.75 1198.03 3525.76 1200.05 3514.43 1208.26 3507.72 1216.19 3503.96 1206.85 3495.17 1200.83 3480.01 1198.22 3458.82 1188.38 3435.79 1157.74 3423.6 1139.37 3413.5 1115.79 3398.1 1106.55 3391.31 1091.98 3386.79 1083.81 3385.99 1072.32 3382.5 1061.95 3374.21 1048.9 3367.29 1041.24 3402.88 993.233 3415.42 979.268 3429.27 959.872 3431.05 942.109 3428 922.448 3433.18 907.629 3439.96 894.513 3448.13 880.788 3470.69 832.369 3482.51 812.636 3473.36 798.041 3473.79 792.224 3470.11 774.181 3461.65 761.637 3455.25 745.916 3451.47 728.665 3462.16 724.3 3460.22 715.555 3462.36 706.114 3471.97 699.045 3475.38 690.858 3370.9 711.645 3239.27 736.189 3151.24 713.368 3093.07 701.123 3066.3 692.095 2953.05 656.951 2957.77 631.048 2960.56 621.01 2973.73 607.652 2980.48 595.483 2986.58 581.471 2991.01 569.063 2993.25 547.445 2999.1 531.255 3002.76 517.497 2996.96 494.426 2988.97 473.574 2974.48 460.605 2963 441.021 2962.86 429.107 2973.39 404.912 2985.82 402.654 2993.56 395.003 2989.1 386.016 2991.94 368.476 2983.03 349.299 2968.17 327.711 2965.43 311.886 2971.07 286.748 2962.55 279.438 2958.67 273.078 2955.72 248.346 2959.17 234.628 2970.71 233.097 2975.16 221.67 2981.76 210.003 2990.48 207.858 2999.73 203.812 3007.5 192.904 3033.65 188.868 3055.25 184.592 3048.37 174.656 3041.43 170.21 3030.84 164.838 3015.42 155.556 3016.42 147.616 3016.01 139.006 3002.77 135.684 3009.59 127.869 3017.19 122.558 3027.13 119.836 3031.64 114.304 3035.97 113.001 3043.91 114.601 3057.29 109.251 3063.3 104.587 3069.51 90.0399 3069.74 81.4345 3058.22 61.3887 3056.34 52.2891 3055.91 36.6208 3053.85 31.2796 3049.9 26.7735 3045.06 23.6378 3045.7 10.929 3042.8 7.42021 3029.26-2.8211 3028.46-5.83617 3029.02-7.61301 3037.94-7.39845 3046.48-6.2553 3065.76 5.32251 3082.04 17.9916Z" stroke="#000000" stroke-width="4.20656" stroke-linecap="butt" stroke-linejoin="miter" stroke-miterlimit="8" stroke-opacity="1" fill="#FFFFFF" fill-rule="evenodd" fill-opacity="1"/></g></g></svg>