<svg width="2200" height="1544" xmlns="http://www.w3.org/2000/svg" xmlns:xlink="http://www.w3.org/1999/xlink" xml:space="preserve" overflow="hidden"><g transform="translate(-1191 -1100)"><g><path d="M2491.1 2253.27 2486.64 2254.59 2482.51 2253.63 2480.57 2251.13 2481.95 2247.15 2481.3 2243.51 2496.91 2241.32 2497.69 2242.5 2493.6 2250.18 2491.1 2253.27ZM2668.78 2040.06 2666.25 2041.83 2664.56 2040.83 2658.83 2026.43 2662.31 2023.75 2665.29 2024.55 2670.11 2031.59 2670.3 2037.03 2668.78 2040.06ZM2660.92 2012.51 2658.33 2018.23 2655.15 2018.41 2652.88 2016.19 2651.43 2004.61 2645.08 1977.15 2632.4 1955.32 2636.12 1953.92 2640.32 1954.14 2644.3 1960.78 2644.85 1963.88 2652.5 1975.13 2652.69 1983.74 2654.09 1988.56 2664.4 2007.64 2663.93 2010.34 2660.92 2012.51ZM1514.74 1438.42 1499.71 1442.08 1495.24 1440.46 1492.01 1437.27 1492.24 1435.34 1500.3 1430.67 1500.22 1428.24 1498.15 1426.16 1511.85 1425.37 1512.77 1434.65 1516.06 1437.27 1514.74 1438.42ZM1374.6 1417.99 1385.06 1423.3 1387 1425.58 1372.09 1427.89 1368.13 1433.14 1364.6 1432.45 1361.5 1427.91 1355.94 1425.51 1355.56 1423.31 1358.02 1421.17 1364.48 1420.19 1365.79 1418.05 1374.6 1417.99ZM1421.89 1405.7 1434.83 1407.88 1443.25 1407.29 1447.89 1410.04 1450.94 1408.94 1452.24 1410.79 1450.35 1413.03 1439.2 1414.1 1415.37 1411.02 1410.3 1412.29 1409.44 1410.74 1413.32 1408.16 1421.89 1405.7ZM1404.26 1408.31 1402.54 1410.31 1385.9 1409.36 1382.37 1407.72 1382.73 1405.6 1404.26 1408.31ZM1336.55 1437.71 1340.38 1440.05 1348.06 1439.61 1352.8 1434.59 1358.75 1433.87 1360.94 1438.59 1364.11 1437.25 1366.03 1441.64 1369.27 1440.67 1373.53 1432.92 1377.24 1430.37 1380.72 1429.74 1402.03 1437.8 1408.35 1444.6 1419.9 1452.91 1423.92 1453.34 1434.08 1449.97 1445.38 1449.64 1448.31 1447.03 1459.73 1444.23 1468.64 1446.42 1476.83 1446.64 1484.13 1450.25 1491.91 1451.5 1494.59 1453.85 1494.61 1458.21 1496.6 1462.97 1499.38 1465.86 1498.18 1469.64 1493.52 1472.16 1488.75 1480.4 1488.48 1486.31 1490.01 1489.61 1499.07 1495.71 1503.06 1494.81 1505.13 1498.01 1505.52 1501.15 1507.41 1502.32 1510.79 1501.16 1514.8 1504.42 1513.83 1506.27 1507.48 1506.68 1500.66 1516.03 1500.53 1518.5 1502.58 1521.36 1509.9 1525.35 1515.35 1526.27 1518.93 1525.24 1520.07 1523.14 1525.27 1521.63 1528.54 1518.77 1535.2 1519.08 1539.83 1517.5 1551.12 1518.29 1551.77 1519.88 1550.91 1523.42 1542.75 1528.5 1541.75 1533.57 1533.58 1535.44 1529.72 1537.25 1528.75 1539.11 1527.8 1546.44 1525.78 1549.99 1512.72 1556.31 1512.12 1558.31 1515.08 1562.11 1510.43 1575.2 1509.72 1581.75 1507.43 1583.69 1499.75 1584.14 1498.24 1586.31 1495.37 1586.09 1493.82 1594.09 1497.74 1601.13 1498.51 1605.35 1497.68 1609.06 1493.2 1612.53 1483.6 1611.64 1475.53 1606.68 1467.64 1604.9 1464.38 1602.66 1457.8 1604.99 1453.73 1609.71 1449.62 1619.32 1449.41 1625.61 1451.16 1630.02 1461.76 1632.1 1465.65 1634.47 1466.66 1637.06 1463.75 1644.94 1458.13 1650.47 1445.95 1656.28 1442.52 1659.16 1438.33 1667.28 1428.28 1673.45 1419.69 1688.76 1416.05 1707.35 1417.18 1715.65 1413.07 1748.28 1411.38 1755.58 1400.72 1761.48 1400.17 1765.74 1401.88 1769.95 1401 1771.4 1396.76 1767.85 1394.23 1763.41 1389.73 1761.41 1380.44 1761.23 1372.19 1755.36 1368.62 1750.35 1362.43 1727.7 1358.63 1724.45 1349.55 1720.24 1309.94 1690.61 1302.98 1677.35 1299.07 1672.41 1294.36 1669.29 1289.46 1660.94 1276.49 1650.33 1284.13 1634.53 1293.81 1622.22 1299.14 1600.18 1292.2 1579.86 1293.64 1566.14 1298.11 1553.72 1301.42 1540.59 1283.76 1541.5 1259.26 1512.39 1239.55 1509.54 1224.12 1510.44 1206.39 1509.87 1196.67 1505.06 1194.3 1493.14 1204.52 1478.72 1220.04 1473.82 1230.88 1467.97 1247.49 1461.1 1250.97 1455.59 1266.23 1453.99 1275.29 1450.03 1282.77 1438.96 1285.32 1416.77 1287.96 1411.08 1287.22 1413.28 1291.92 1417.17 1299.43 1419.02 1318.13 1430.2 1327.83 1430.52 1330.06 1435.4 1333.18 1438.05 1336.55 1437.71ZM1283.14 1332.14 1287.06 1331.81 1290.87 1330.01 1300.97 1332.35 1311.26 1332.56 1314.34 1333.89 1317.38 1332.75 1319.45 1334.84 1318.56 1338.22 1314.61 1339.32 1307.67 1337.57 1304.88 1339.99 1282.76 1340.21 1277.83 1335.98 1276.81 1336.73 1276.49 1339.06 1280.47 1343.26 1284.47 1344.42 1289.1 1343.79 1291.69 1346.54 1294.06 1345.92 1295.63 1343.18 1298.45 1344.01 1301.07 1342.94 1305.68 1343.26 1310.88 1348 1313.32 1348.9 1317.91 1347.12 1322.29 1343.11 1329.41 1341.83 1330.27 1344.49 1328.9 1348.52 1325.39 1351.03 1325.5 1352.72 1311.95 1361.62 1307.83 1361.81 1291.79 1368.48 1278.98 1369.87 1265.6 1366.06 1261.93 1363.51 1258.67 1360.12 1251.7 1345.7 1248.71 1342.85 1250.21 1338.63 1254.47 1338.02 1265.19 1330.23 1273.58 1329.48 1283.14 1332.14ZM1532.77 1116.54 1550.49 1134.03 1580.44 1147.33 1596.5 1138.08 1605.8 1129.58 1617.08 1123.34 1625.82 1124.66 1635.9 1133.38 1647.67 1141.74 1655.13 1156.49 1651.65 1173.42 1647.15 1184.6 1643.42 1199.1 1653.78 1203.53 1654.24 1214.61 1659.59 1235.55 1662.23 1248.65 1679.34 1271.22 1685.59 1278.28 1697.91 1281.27 1703.73 1296.63 1708.78 1305.97 1736.7 1301.09 1751.58 1300.02 1766.19 1309.98 1770.83 1324.37 1769.58 1339.03 1752.96 1349.16 1742.85 1363.08 1735.29 1378.4 1723.17 1381.8 1710.41 1384.59 1705.16 1393.43 1699.59 1415.52 1690.51 1420.51 1686.17 1428.92 1687.88 1443.45 1696.02 1452.33 1716.79 1451.98 1730.94 1448.62 1742.72 1447.04 1755.34 1448 1758.79 1458.17 1764 1462.73 1773.17 1464.95 1780.93 1468.73 1774.4 1479.61 1775.96 1490.19 1789.45 1487.21 1799.39 1504.14 1810.5 1501.71 1817.33 1509.13 1805.39 1524.69 1786.16 1527.44 1781.45 1531.94 1783.71 1555.77 1793.74 1573.2 1795.5 1592.42 1801.34 1602.04 1823.78 1618.45 1827.07 1633.36 1833.68 1646.56 1846.98 1657.53 1852.94 1658.69 1868.42 1660.26 1893.02 1654.85 1906.92 1649.31 1919.85 1644.99 1925.82 1655.32 1935.13 1660.46 1944.55 1644.75 1951.6 1630.55 1957.13 1617.42 1947.49 1602.92 1951.5 1591.87 1970.4 1590.94 1983.58 1586.57 2008.34 1580.88 2019.96 1568.37 2040.8 1576.44 2064.37 1579.92 2077.41 1577.29 2087.93 1574.46 2106.74 1580 2130.04 1566.46 2147.27 1564.9 2154.46 1567.03 2160.27 1575.42 2162.14 1600.79 2174.01 1613.06 2183.74 1614.4 2197.98 1604.82 2216.68 1608.63 2219.84 1636.49 2224.26 1652.12 2239.26 1655.02 2253.12 1669.61 2268.45 1673.94 2286.25 1682.68 2288.93 1689.27 2297.26 1700.09 2308.81 1695.04 2319.74 1711.99 2337.74 1722.92 2351.89 1717.34 2355.32 1708.16 2360.34 1700.6 2373.57 1700.93 2378.73 1714.19 2391.82 1732.14 2404.75 1741.43 2414.96 1746.15 2423.62 1745 2433.77 1747.2 2428.93 1766.88 2431.57 1779.94 2439.08 1806.32 2463.9 1819.96 2493.05 1828.41 2514.27 1827.97 2527.9 1803.14 2557.88 1816.6 2577.28 1838.34 2590.82 1858.17 2602.46 1871.73 2618.23 1873.46 2638.93 1878.56 2655.45 1894.01 2695.7 1902.24 2707.62 1908.05 2724.08 1902.91 2735.86 1894.36 2742.19 1886.04 2745.57 1872.16 2742.72 1855.72 2752.04 1841.77 2755.17 1823.24 2752.78 1816.81 2745.78 1806.46 2729.16 1809.87 2717.17 1807.29 2707.53 1801.74 2707.19 1796.84 2713.9 1782.24 2712.3 1764.74 2710.28 1759.99 2715.19 1748.52 2723.3 1740.28 2729.29 1731.51 2736.27 1704.7 2745.49 1691.29 2750.4 1677.55 2758.59 1660.61 2773.8 1663.21 2782.54 1669.24 2786.31 1678.57 2793.02 1670.65 2804.35 1662.44 2811.33 1660.42 2820.3 1660.66 2823.02 1653.85 2821.82 1640.47 2824.01 1635.77 2834.28 1628.32 2851.81 1633.64 2862.44 1641.44 2875.87 1648.41 2896.19 1648.4 2903.52 1651.28 2916.72 1663.98 2930.44 1664.43 2943.26 1658.41 2958.42 1654.09 2972.37 1662.2 2994.02 1682.96 3005.78 1684.59 3024.36 1689.16 3047.2 1696.03 3058.51 1697.75 3064.41 1713.31 3064.75 1722.67 3078.34 1740.52 3078.3 1753.92 3080.44 1757.92 3098.06 1759.25 3122.75 1758.79 3135.29 1762.71 3152.12 1806.61 3163.41 1820.71 3175.62 1826.71 3197.42 1828.86 3193.93 1819.81 3195.47 1820.46 3216.25 1803.63 3221.19 1802.12 3226.12 1802.59 3238.79 1817.88 3244.89 1823.3 3291.09 1841.27 3305.94 1852.33 3336.74 1854.16 3352.88 1861.42 3356.61 1864.34 3365.63 1880.93 3383.99 1891.7 3386.07 1900.08 3385.6 1905 3364.21 1922.25 3360.76 1934.17 3354.64 1945.88 3350.14 1949.87 3323.2 1960.95 3319.41 1963.56 3314.36 1971.85 3309.05 1975.01 3288.54 1982.07 3283.23 1985.23 3277.34 1990.77 3270.05 2003.04 3269.55 2009.6 3271.77 2013.11 3284.55 2021.61 3285.19 2025.39 3283.75 2030.16 3280.48 2033.65 3267.41 2042.67 3268.1 2052.25 3255.14 2058.03 3251.32 2062.24 3255.23 2068.29 3255.52 2071.36 3253.58 2075.54 3254.03 2078.11 3267.37 2088.86 3275.29 2101.12 3289.37 2107.88 3301.09 2111.32 3304.06 2113.83 3307.65 2122.73 3314.67 2127.8 3318.27 2135.38 3326.16 2140.54 3336.75 2150.79 3342.49 2158.12 3343.03 2164.05 3338.92 2171 3339.78 2173.28 3344.49 2176.83 3346.77 2190.9 3353.52 2200.6 3354.6 2205.58 3353.24 2212.56 3347.95 2219.61 3346.45 2223.62 3353.71 2242.04 3356.47 2254.61 3355.99 2271.57 3351.49 2288.96 3344.98 2303.09 3339.74 2309.06 3331.38 2315.33 3315.09 2323.17 3307.17 2324.77 3301.01 2324.16 3292.53 2325.36 3278.93 2346.03 3264.72 2371.62 3251.52 2388.83 3234.41 2403.12 3217.85 2411.99 3212.95 2415.72 3210.83 2418.99 3210.68 2423.81 3212.39 2429.56 3219.49 2437.27 3234.99 2438.96 3239.13 2440.65 3260.08 2451.74 3267.42 2459.4 3270.5 2459.11 3281.02 2452.98 3300.6 2454.45 3310.04 2457.39 3312.24 2460.39 3316.53 2472.66 3320.69 2478.46 3323.88 2502.71 3337.72 2507.55 3345.15 2512.75 3349.9 2529.26 3350.25 2542.46 3370.88 2575.53 3376.15 2599.17 3376.04 2622.52 3378.3 2638.1 3377.22 2637.15 3371.88 2637.7 3368.66 2636.56 3356.77 2623.05 3357.33 2617.72 3355.72 2610.71 3356.6 2609.26 3360.31 2608.03 3362.44 2605.06 3363.24 2598.74 3362.62 2591.92 3358.58 2580.46 3349.43 2572.11 3346.54 2566.25 3340.45 2561.3 3338.14 2557.76 3334.66 2547.47 3319.95 2526.41 3283.85 2490.49 3266.28 2478.89 3250.14 2475.69 3202.64 2452.02 3158.91 2437.09 3146.14 2428.41 3137.41 2424.7 3129.92 2417.19 3126.82 2406.83 3126.5 2399.57 3128.72 2391.69 3139.71 2378.16 3147.37 2371.38 3150.7 2365.73 3150.06 2352.33 3154.77 2344.96 3156.24 2340.57 3155.29 2337.15 3145.37 2324.59 3135.61 2314.82 3108.83 2293.94 3102.2 2280.62 3097.19 2275.5 3099.32 2274.75 3103.55 2276.46 3107.66 2283.81 3111.38 2285.79 3114.02 2284.77 3112.35 2281.66 3109.71 2280.42 3109.26 2276.73 3111.52 2274.67 3120.93 2274.75 3128.34 2263.31 3134.97 2263.28 3134.68 2261.54 3131.2 2260.37 3126.19 2260.86 3114.65 2270.18 3110.83 2270.83 3105.62 2267.8 3100.9 2262.42 3095.11 2261.56 3091.55 2259.55 3067.38 2237.26 3065.07 2231.46 3069.13 2218.01 3073.06 2218.84 3076.36 2225.95 3079.47 2227.66 3084.62 2228.09 3085.6 2230.55 3083.05 2236.44 3087.18 2239.67 3083.98 2246.23 3088.73 2252 3098.69 2243.32 3102.09 2238.05 3106.48 2237.46 3109.94 2238.94 3111.99 2234.43 3111.24 2232.31 3105.72 2230.84 3102.21 2233.32 3100.42 2232.68 3097.19 2225.93 3078.17 2209.72 3070.12 2207.76 3065.04 2203.38 3061.83 2206.57 3059.06 2204.62 3056.66 2204.86 3055.45 2206.59 3055.82 2207.64 3061.6 2208.5 3063.3 2210.65 3064.46 2215.14 3063.43 2218.89 3060.94 2220.65 3058.16 2220.93 3055.01 2219.05 3047.1 2220.05 3041.68 2217.07 3038.14 2219.38 3034.56 2219.25 3033.07 2218.21 3034.15 2214.67 3033.06 2212.78 3029.74 2212.04 3018.59 2213.8 3016.25 2224.18 3013.58 2223.88 3006.35 2215.94 3000.04 2204.48 2997.47 2203.82 2991.48 2207.28 2979.33 2205.63 2975.04 2206.92 2969.94 2212.31 2957.12 2201.37 2953.53 2200.31 2947.96 2200.74 2945.01 2199.93 2942.84 2197.1 2937.79 2196.27 2935.66 2194.97 2937.64 2191.25 2933.8 2184.41 2935.04 2178.56 2934.28 2173.06 2938.19 2168.63 2937.93 2160.8 2932.38 2159.13 2929.08 2163.83 2926.51 2164.28 2924.27 2162.22 2919.56 2162.27 2913.35 2156.96 2909.77 2156.83 2908.36 2159.54 2901.05 2158.76 2893.11 2159.6 2891.73 2159.1 2889.92 2153.02 2888.09 2152.22 2885.32 2154.76 2885.7 2158.07 2882.33 2161.29 2882.42 2165.98 2880.97 2167.37 2877.45 2167.79 2876.32 2164.58 2874.22 2163.27 2871.72 2165.21 2868.91 2165.32 2863.4 2176.78 2857.09 2182.78 2851.31 2185.31 2846.78 2185.15 2844.47 2180.5 2832.61 2182.56 2825.88 2181.67 2821.19 2182.7 2820.48 2185.28 2818.35 2187.14 2813.31 2187.25 2809.99 2195.17 2810.49 2203.33 2813.06 2207.37 2816.21 2208.14 2819.08 2204.08 2822.59 2203.83 2826.11 2205.64 2827.02 2207.73 2824.84 2214.7 2827.42 2216.52 2829.75 2213.67 2832.83 2212.95 2838.35 2215.57 2845.54 2221.09 2852.48 2224.2 2860.62 2234.24 2860.29 2247.45 2861.65 2251.89 2865.49 2253.77 2867.82 2257 2872.12 2259.98 2882.48 2265.49 2893.4 2274.09 2901.36 2278.73 2907.36 2280.7 2912.43 2279.64 2919.68 2284.58 2930.11 2280.87 2953.15 2284.75 2965.92 2293.21 2974.19 2300.78 2980.93 2301.67 2986.31 2304.49 2989.41 2301.88 2989.37 2297.4 2992.01 2299.55 2993.78 2303.19 2995.55 2336.1 2998.84 2339.84 3015.79 2352.85 3015.5 2356.46 3013.41 2360.76 3006.66 2369.63 3007.95 2372.76 3018.67 2383.46 3020.2 2386.76 3017 2405.14 3022.03 2416.84 3020.29 2424.07 3012.87 2431.19 2993.58 2428.34 2970.74 2422.37 2938.2 2417.91 2913.47 2411.92 2898.78 2406.39 2889.71 2404.97 2850.73 2404.66 2833.45 2406.91 2823.65 2409 2806.86 2415.14 2805.95 2416.42 2800.54 2415.49 2792.77 2419.47 2787.53 2419.62 2765.19 2409.1 2761.68 2402.02 2754.13 2395.26 2742.11 2387.8 2723.5 2381.32 2686.35 2353.09 2655.69 2331.63 2646.69 2330.75 2645.13 2328.22 2641.96 2330.46 2639.57 2334.08 2636.11 2330.38 2631.82 2320.97 2622.87 2311.86 2622.56 2308.93 2626.08 2297.98 2626.49 2290.75 2629.68 2284.36 2634.94 2281.17 2635.95 2278.36 2634.65 2261.32 2635.68 2256.45 2642.96 2247.48 2650.5 2243.17 2674.08 2237.14 2677.49 2235.03 2679.57 2230.91 2680.8 2223.01 2678.1 2214.11 2679.26 2205.84 2682.55 2199.99 2687.65 2196.82 2689.86 2192.29 2687.43 2190.1 2684.45 2190.25 2682.7 2193.19 2681.08 2193.68 2677.74 2185.42 2676.85 2180.32 2677.54 2176.81 2679.06 2174.67 2688.08 2172.51 2694.66 2168.17 2697.85 2159.51 2702.48 2161.32 2702.27 2159.09 2696.6 2152.56 2697.55 2151.48 2708.6 2147.86 2716 2143.96 2722.76 2145.01 2728.12 2138.97 2725.4 2134.19 2723.77 2133.52 2720.8 2135.93 2718.82 2128.95 2717.53 2129.15 2716.56 2132.16 2716.04 2138.81 2712.63 2140.92 2700.02 2143.13 2691.57 2143.12 2690.93 2154.5 2689.62 2158.86 2683.86 2164.59 2680.14 2164.88 2667.64 2155.81 2683.39 2130.87 2687.07 2128.15 2689.28 2123.62 2693.74 2121.13 2697.44 2116.53 2699.45 2110.92 2707.43 2106.91 2718.12 2109.9 2723.83 2109.28 2729.69 2111.66 2731.82 2109.8 2728.02 2105.22 2719.35 2100.89 2717.17 2097.16 2718.35 2094.15 2723.13 2096.7 2737.46 2093.61 2741.78 2091.36 2749.3 2092.32 2753.93 2088.52 2754.84 2090.61 2751.64 2102.27 2750.93 2114.43 2747.83 2120.42 2744.47 2122.52 2738.11 2123.83 2734.07 2127.56 2733.31 2132.97 2734.4 2137.08 2733.2 2140.87 2728.87 2140.88 2728.77 2142.61 2730.57 2144.15 2734.19 2145.38 2737.81 2143.45 2740.62 2143.34 2742.67 2139.95 2740.96 2134.41 2742.07 2131.03 2747.98 2128.31 2753.95 2122.58 2756.65 2108.97 2755.08 2102.12 2756.52 2096.41 2759.42 2094.78 2763.72 2096.87 2765.68 2096.15 2773.34 2088.22 2787.53 2083.31 2789.32 2080.57 2787.21 2077.16 2783.61 2076.1 2782.77 2078.87 2780.38 2081.34 2769.83 2083.37 2762.78 2090.41 2760.42 2089.71 2759.46 2086.51 2762.93 2080.46 2760.01 2078.88 2755.52 2082.3 2751.57 2082.25 2747.09 2087.73 2737.48 2086.58 2728.73 2090.36 2722.5 2089.2 2717.69 2085.33 2714.34 2085.55 2711.41 2088.12 2711.43 2093.6 2714.93 2100.67 2714.5 2102.42 2713.04 2102.66 2708.87 2100.38 2705.09 2092.76 2701.31 2092.67 2690.16 2088.22 2674.72 2091.31 2677.76 2078.57 2676.76 2069.78 2683.12 2072.75 2691.71 2074.61 2713.42 2073.82 2719.18 2075.46 2722.5 2078.24 2730.25 2079.54 2726.37 2070.27 2720.88 2068.02 2718.68 2065.02 2721.03 2059.18 2723.87 2058.12 2730.51 2059.41 2735.37 2058.18 2735.46 2054.4 2732.85 2052.42 2725.95 2052.88 2720.44 2054.8 2714.2 2060.02 2712.3 2067.32 2709.85 2070.4 2694.88 2064.54 2692.61 2065.7 2684.9 2064.62 2681.58 2062.94 2679.29 2058.63 2679.56 2056.91 2683.12 2060.04 2691.1 2060.52 2696.72 2063.67 2700.58 2063.19 2702.22 2060.82 2701.64 2058.66 2686.55 2057.37 2684.48 2056.39 2682.13 2051.54 2680.31 2050.73 2677.06 2050.37 2670.45 2057.93 2667.58 2058.82 2665.52 2057.68 2664.9 2055.36 2666.31 2051.54 2674.5 2041.27 2675.87 2036.13 2674.31 2032.66 2674.03 2019.36 2671.91 2012.79 2666.09 2005.52 2665.82 2002.75 2661.31 1993.08 2656.78 1987.83 2655.89 1983.85 2656.58 1978.07 2659.11 1976.3 2668.81 1974.78 2668.57 1973.33 2657.37 1971.71 2653.29 1964.53 2652.77 1958.21 2655.17 1955.74 2654.93 1954.29 2650.81 1954.27 2647.78 1949.88 2642.24 1950.47 2638.89 1949.58 2630.34 1941.67 2623.33 1939.34 2620.67 1943.57 2617.43 1944.32 2610.49 1935 2598.74 1930.28 2598.93 1927.03 2597.34 1924.3 2591.92 1923.54 2585.98 1916.5 2568.28 1905.82 2565.32 1899.54 2555.47 1895.39 2550.16 1889.39 2544.16 1885.62 2540.55 1884.9 2533.2 1887.26 2530.12 1890.2 2529.09 1895.32 2527.26 1895.63 2522.72 1893.42 2525.48 1887.67 2521.83 1880.96 2518.95 1868.85 2515.83 1865.08 2504.63 1858.37 2486.75 1852.09 2457.77 1846.09 2447.93 1846.87 2446.58 1845.63 2447.47 1838.87 2444.08 1835.71 2438.51 1833.1 2429.21 1824.18 2404.95 1812.83 2396.41 1807.19 2396.19 1802.7 2393.31 1801.33 2390.81 1802.15 2389.06 1805.1 2371.58 1796.89 2369.81 1792.14 2368.06 1792.82 2367.12 1796 2326.28 1782.69 2286.23 1773.94 2282.77 1770.41 2285.14 1763.58 2282.64 1762.14 2280.41 1764.62 2280.07 1772.22 2277.12 1772.74 2271.27 1771.72 2258.49 1766.81 2249.7 1766.11 2236.72 1762.18 2213.51 1761.2 2210.21 1762.73 2204.88 1767.82 2200.79 1758.55 2198.59 1757.81 2196.6 1759.31 2194.86 1763.41 2190.19 1763.66 2187.03 1765.94 2182.43 1759.2 2176.59 1755.14 2171.61 1753.75 2166.6 1754.24 2163.03 1756.38 2159.71 1756.76 2163.14 1749.38 2167.75 1749.69 2168.44 1746.18 2162.11 1735.07 2163.85 1730.07 2156.9 1723.78 2145.93 1720.45 2137.48 1714.41 2131.74 1708.67 2125.61 1705.99 2108.22 1703.59 2100.89 1698.49 2092.57 1687.72 2087.65 1684.43 2084.73 1684 2083.56 1687.05 2086.59 1691.22 2104.27 1705.59 2111.62 1708.81 2119.54 1709.85 2125.62 1708.94 2128.07 1709.84 2129.84 1713.48 2128.86 1715.55 2124.34 1716.55 2114.89 1715.58 2113.06 1713.84 2099.32 1710.83 2088.65 1705.94 2080.66 1697.16 2071.12 1698.65 2062.37 1696.13 2057.58 1697.99 2060.85 1700.53 2063.39 1701.03 2076.43 1700.8 2079.3 1702.17 2079.68 1704.36 2077.63 1705.49 2062.93 1703.99 2056.51 1705.13 2054.37 1703.83 2042.54 1705.2 2040.86 1706.25 2032.86 1702.78 2029.61 1702.59 2026.66 1700.85 2027.93 1698.55 2026.8 1694.23 2024.68 1693.87 2022.7 1697.63 2017.62 1698.9 2017.29 1700.29 2018.99 1702.45 2017.98 1703.2 1973.49 1701.51 1968.85 1698.76 1967.03 1701.34 1957.7 1701.89 1953.94 1701.03 1951.51 1695.97 1948.4 1695.41 1945.84 1699.07 1941.04 1699.74 1930.82 1697.42 1925.27 1698.23 1912.59 1695.78 1904.71 1696.05 1900.18 1697.48 1893.75 1696.36 1892.95 1699.34 1860.18 1711.58 1850.52 1703.89 1848.03 1700.56 1851.33 1694.7 1848.84 1691.37 1840.98 1695.96 1834.44 1692.04 1832.37 1692.01 1833.28 1694.7 1837.04 1697.32 1836.15 1698.52 1828.11 1693.72 1826.34 1691.2 1823.03 1691.79 1811.83 1685.29 1790.46 1677.8 1787.3 1676.09 1779.07 1667.18 1778.98 1661.34 1772.9 1656.94 1771.13 1653.3 1767.7 1649.93 1765.84 1650.08 1760.34 1646.89 1756.2 1650.09 1753.49 1649.62 1745.59 1644.63 1743.79 1641.94 1747.02 1637.77 1747.54 1634.46 1746.64 1631.59 1741.62 1627.76 1736.3 1626.64 1728.3 1630.53 1726.54 1629.16 1725.72 1626.66 1730.15 1619.82 1728.24 1615.43 1729.77 1611.37 1728.77 1609.08 1722.98 1606.17 1722.49 1593.98 1725.11 1589.54 1727.71 1588.14 1729.29 1584.29 1729.06 1579.96 1731.26 1572.22 1738.48 1560.95 1742.33 1559.31 1743.79 1554.88 1746.32 1552.17 1748.56 1538.38 1740.59 1519.24 1736.69 1517.67 1720.25 1499.69 1706.23 1488.98 1703.34 1485.55 1694.38 1478.84 1684.66 1476.25 1679.24 1473.44 1677.26 1470.96 1677.56 1469.4 1679.99 1469.32 1681.24 1467.8 1674.79 1461.2 1649.93 1448.08 1649.24 1445.39 1652.64 1442.34 1656.44 1436 1660.19 1426.25 1659.37 1423.75 1648.14 1418.21 1637.48 1410.49 1632.92 1403.02 1632.67 1394.38 1630.43 1391.39 1627.17 1389.14 1622.46 1388.29 1611.23 1390.11 1600.47 1389.22 1589.6 1392.89 1577.91 1394.07 1571.93 1397.78 1556.01 1400.84 1547.7 1404.02 1544.83 1403.8 1542.59 1400.8 1543.49 1398.36 1548.01 1395.1 1563 1389.01 1557.49 1388.87 1552.83 1390.28 1538.98 1388.06 1529.59 1383.14 1504.82 1373.81 1497.09 1369.73 1482.34 1363.49 1478.29 1364.01 1476.01 1361.96 1475.72 1358.25 1468.53 1361.43 1455.03 1347.63 1450.09 1346.44 1446.78 1347.97 1435 1346.68 1433.36 1345.07 1434.5 1342.97 1438.24 1340.58 1441.89 1339.92 1438.59 1336.36 1435.92 1330.03 1432.04 1326.36 1423.06 1323.8 1414.44 1324.22 1407.09 1322.33 1390.39 1309.49 1383.6 1305.61 1370.57 1302.51 1361.96 1298.98 1358.78 1299.16 1355.02 1305.71 1352.96 1306.83 1347.68 1305.19 1339.43 1276.77 1354.57 1273.43 1374.8 1279.91 1419.57 1288.43 1438.71 1295.42 1449.11 1293.12 1455.68 1273.28 1449.66 1258.22 1463.84 1239.19 1479.15 1232.09 1469.34 1204.4 1476.08 1165.14 1475.26 1154.64 1476.01 1135.57 1485.51 1115.56 1498.35 1106.29 1517.34 1108.08 1532.77 1116.54Z" stroke="#000000" stroke-width="4.20656" stroke-linecap="butt" stroke-linejoin="miter" stroke-miterlimit="8" stroke-opacity="1" fill="#FFFFFF" fill-rule="evenodd" fill-opacity="1"/></g></g></svg>