<svg width="994" height="839" xmlns="http://www.w3.org/2000/svg" xmlns:xlink="http://www.w3.org/1999/xlink" xml:space="preserve" overflow="hidden"><g transform="translate(-2021 -774)"><g><path d="M2484.62 819.661 2494.79 835.558 2511.43 873.112 2521.62 878.818 2539.15 881.916 2553.72 890.846 2561.82 901.747 2564.91 914.723 2569.82 928.033 2577.58 938.487 2575.33 946.451 2562.05 953.625 2555.78 952.259 2548.17 951.453 2542.87 960.046 2536.05 968.504 2522.4 973.993 2510.26 973.969 2477.01 985.018 2472.16 989.031 2473.68 1001.62 2466.01 1015.25 2455.92 1025.67 2457.04 1037.56 2469.73 1033.29 2477.63 1032.03 2482.41 1035.69 2483.56 1042.14 2481.56 1050.02 2479.31 1057.73 2476.07 1063.4 2468.08 1082.31 2467.22 1089.67 2459.85 1095.75 2446.71 1110.34 2433.31 1120.49 2428.8 1122.47 2432.13 1133.13 2429.98 1141.34 2439.24 1144.01 2452.26 1142.37 2465.32 1136.52 2475.23 1134.06 2493.83 1117.31 2499.22 1113.66 2510.33 1131.56 2522.54 1144.24 2544.15 1149.16 2547.06 1161.19 2547.58 1169.27 2551.41 1173.11 2559.9 1172.25 2569.39 1176.08 2572.95 1181 2577.44 1182.28 2583.83 1177.37 2598.04 1186.89 2604.9 1188.87 2613.73 1188.41 2617.26 1185.38 2631.09 1185.08 2635.73 1190.48 2638.53 1205.52 2645 1215.75 2656.62 1221.35 2669.06 1221.62 2678.81 1224.16 2688.86 1224.92 2701.12 1227.36 2708.31 1225.04 2707.88 1235.78 2713.63 1247.18 2720.12 1249.74 2731.86 1247.87 2737.08 1255.9 2746.88 1256.46 2762.45 1249.32 2773.2 1252.18 2784.27 1241.53 2787.15 1231.95 2792.04 1225.92 2800.33 1223.08 2810.85 1224.75 2822.29 1233.89 2831.21 1236.12 2853.09 1244.46 2868.63 1245.24 2880.57 1247.57 2910.54 1264.55 2929.67 1269.26 2945.07 1278.5 2955.17 1302.08 2967.36 1320.45 2990.39 1351.09 3011.58 1360.93 3003.38 1377.87 2998.47 1391.61 2989.26 1405.03 2982.27 1431.83 2976.24 1440.61 2968.13 1448.85 2963.22 1460.32 2965.25 1465.11 2966.9 1482.6 2960.18 1497.2 2960.52 1502.1 2970.16 1507.65 2982.11 1510.24 2998.72 1506.79 3005.73 1517.18 3008.12 1523.57 3004.99 1542.1 2995.66 1556.05 2998.53 1572.54 2995.14 1586.41 2988.77 1594.74 2977.03 1603.29 2960.56 1608.37 2948.6 1602.58 2908.39 1594.34 2891.83 1578.89 2871.13 1573.79 2855.37 1572.07 2843.72 1558.51 2830.22 1538.67 2810.82 1516.93 2780.84 1503.47 2767.17 1528.27 2745.94 1528.7 2716.84 1520.25 2692.01 1506.61 2684.51 1480.27 2681.87 1467.21 2686.71 1447.53 2676.56 1445.33 2667.9 1446.48 2657.7 1441.8 2644.76 1432.47 2631.63 1414.53 2626.48 1401.31 2613.29 1400.97 2608.23 1408.54 2604.8 1417.71 2590.65 1423.3 2572.65 1412.37 2561.73 1395.46 2550.21 1400.46 2541.88 1389.65 2539.2 1383.05 2521.4 1374.32 2506.08 1370.02 2492.22 1355.43 2477.22 1352.54 2472.76 1336.91 2469.64 1309.05 2450.94 1305.23 2436.7 1314.81 2426.97 1313.47 2415.1 1301.2 2413.27 1275.82 2407.45 1267.4 2400.26 1265.27 2383.03 1266.82 2359.73 1280.37 2340.88 1274.87 2330.36 1277.66 2317.32 1280.29 2293.71 1276.82 2272.87 1268.75 2261.24 1281.21 2236.44 1286.92 2223.27 1291.33 2204.41 1292.25 2200.4 1303.3 2210 1317.8 2204.46 1330.94 2197.41 1345.13 2188 1360.85 2178.69 1355.7 2172.68 1345.39 2159.75 1349.71 2145.85 1355.25 2121.25 1360.65 2105.77 1359.09 2099.84 1357.92 2086.51 1346.95 2079.91 1333.79 2076.62 1318.89 2054.17 1302.48 2048.34 1292.85 2046.62 1273.62 2036.58 1256.2 2034.32 1232.37 2039.03 1227.87 2058.27 1225.12 2070.21 1209.6 2063.37 1202.13 2052.27 1204.61 2042.33 1187.64 2028.88 1190.61 2027.28 1180.04 2033.85 1169.15 2044.08 1167.06 2051.98 1147.69 2052.72 1140.83 2059.45 1127.42 2069.72 1122.2 2079.81 1107.29 2085.44 1101.33 2095.71 1093.88 2099.2 1088.37 2109.07 1079.03 2120.14 1077.55 2150.81 1064.85 2151.03 1063.57 2170.54 1060 2181.87 1060.73 2196.42 1066.2 2215.55 1061.76 2233.66 1051.81 2264.52 1043.28 2276.93 1035.55 2286.68 1024.47 2291.16 1016.76 2297.94 1008.1 2308.66 1000.52 2318.05 999.186 2327.6 999.793 2333.33 1001.05 2337.29 1001.14 2347.48 1000.17 2360.92 992.454 2373.14 991.777 2377.21 993.349 2391.24 986.033 2400.68 982.722 2404.87 979.307 2416.81 977.186 2427.87 970.012 2439.08 960.07 2446.97 946.442 2448.92 933.825 2448.69 921.456 2436.07 909.112 2430.07 901.96 2431.08 896.543 2430.29 889.504 2432.38 882.083 2446.23 878.525 2455.25 874.568 2460.31 864.778 2456.34 837.59 2453.83 827.2 2459 816.874 2492.13 783.72 2489.34 793.758Z" stroke="#000000" stroke-width="4.20656" stroke-linecap="butt" stroke-linejoin="miter" stroke-miterlimit="8" stroke-opacity="1" fill="#FFFFFF" fill-rule="evenodd" fill-opacity="1"/></g></g></svg>